<svg xmlns="http://www.w3.org/2000/svg" viewBox="0 0 751 777">
  <defs/>
  <defs/>
  <path fill="#ffffff" id="Rounded_Rectangle_1_copy_5" d="M570.5 111.333l69.62-12.865c8.951-1.654 16 4.386 15.737 13.475l-2.565 89.544c-.255 8.9-7.623 17.405-16.455 19.022l-68.693 12.581c-8.814 1.614-15.831-4.251-15.675-13.116l1.571-89.239c.16-9.058 7.529-17.751 16.46-19.402z" class="cls-1" data-name="Rounded Rectangle 1 copy 5"/>
  <path fill="#ffffff" id="Rounded_Rectangle_1_copy_8" d="M475.376 42.934l46.136-8.162c5.932-1.049 10.553 2.52 10.321 7.963l-2.289 53.624c-.227 5.327-5.157 10.47-11.009 11.5l-45.523 7.986c-5.84 1.024-10.443-2.441-10.281-7.749l1.628-53.435c.166-5.427 5.097-10.68 11.017-11.727z" class="cls-1" data-name="Rounded Rectangle 1 copy 8"/>
  <path fill="#ffffff" id="Rounded_Rectangle_1_copy_9" d="M447.16 142.51l68.7-12.494c8.833-1.607 15.759 4.115 15.469 12.763l-2.855 85.208c-.284 8.465-7.58 16.589-16.295 18.16l-67.785 12.221c-8.7 1.568-15.6-3.988-15.409-12.423l1.874-84.914c.189-8.619 7.487-16.918 16.301-18.521z" class="cls-1" data-name="Rounded Rectangle 1 copy 9"/>
  <path fill="#ffffff" id="Rounded_Rectangle_1_copy_10" d="M566.1 252.935l68.729-11.207c9.229-1.5 16.875 4.776 16.993 14.018l1.152 90.61c.114 8.957-7.208 16.9-16.269 17.756l-67.542 6.378a13.991 13.991 0 01-15.417-13.872l-2.43-85.418c-.248-8.707 6.337-16.887 14.784-18.265z" class="cls-1" data-name="Rounded Rectangle 1 copy 10"/>
  <path fill="#ffffff" id="Rounded_Rectangle_1_copy_11" d="M446.032 280.606l61.891-11.689c8.3-1.568 14.853 4.234 14.55 12.973l-3.017 86.947c-.3 8.723-7.317 16.586-15.591 17.556l-61.665 7.226c-7.583.888-13.452-5.078-13.173-13.32l2.777-82.15c.276-8.256 6.618-16.105 14.228-17.543z" class="cls-1" data-name="Rounded Rectangle 1 copy 11"/>
  <path fill="#ffffff" id="Rounded_Rectangle_1_copy_12" d="M332.142 303.041l61.618-11.385c8.268-1.527 14.84 3.932 14.6 12.2L406 386.181c-.237 8.258-7.172 15.737-15.414 16.7l-61.429 7.159c-7.554.88-13.449-4.737-13.233-12.54l2.158-77.777c.218-7.823 6.483-15.282 14.06-16.682z" class="cls-1" data-name="Rounded Rectangle 1 copy 12"/>
  <path fill="#ffffff" id="Rounded_Rectangle_1_copy_13" d="M441.078 414.3l64.846-1.892c8.275-.241 14.884 7 14.772 16.177l-1.126 92.1c-.114 9.316-6.968 17.149-15.32 17.485l-65.45 2.63c-8.461.34-15.183-7.011-15-16.407l1.775-92.891c.174-9.258 7.125-16.953 15.503-17.202z" class="cls-1" data-name="Rounded Rectangle 1 copy 13"/>
  <path fill="#ffffff" id="Rounded_Rectangle_1_copy_14" d="M324.3 435.96l62.945-9c8.549-1.222 15.379 4.871 15.155 13.619l-2.225 86.859a17.221 17.221 0 01-15.875 16.574l-62.586 3.364c-7.607.409-13.556-5.819-13.372-13.91l1.838-80.8c.186-8.137 6.468-15.612 14.12-16.706z" class="cls-1" data-name="Rounded Rectangle 1 copy 14"/>
  <path fill="#ffffff" id="Rounded_Rectangle_1_copy_15" d="M221.3 452.668l58.2-5.739c7.658-.755 13.512 4.975 13.036 12.807l-4.754 78.3c-.48 7.893-7.123 14.672-14.8 15.133l-58.335 3.51c-7.314.441-12.813-5.41-12.319-13.061l4.9-75.906c.492-7.592 6.772-14.325 14.072-15.044z" class="cls-1" data-name="Rounded Rectangle 1 copy 15"/>
  <path fill="#ffffff" id="Rounded_Rectangle_1_copy_16" d="M118.453 466.031l54.254-8.639c7.138-1.137 12.618 4.131 12.2 11.777l-4.146 76.431c-.418 7.705-6.588 14.649-13.745 15.5l-54.386 6.477c-6.818.813-11.968-4.592-11.535-12.061l4.291-74.11c.429-7.412 6.265-14.292 13.067-15.375z" class="cls-1" data-name="Rounded Rectangle 1 copy 16"/>
  <path fill="#ffffff" id="Rounded_Rectangle_1_copy_18" d="M216.551 586.247l58.4-4.036a11.888 11.888 0 0113.054 12.933l-4.921 76.747a15.742 15.742 0 01-14.877 14.453l-58.531 1.844c-7.338.231-12.843-5.665-12.333-13.163l5.06-74.392c.508-7.442 6.825-13.88 14.148-14.386z" class="cls-1" data-name="Rounded Rectangle 1 copy 18"/>
  <path fill="#ffffff" id="Rounded_Rectangle_1_copy_19" d="M434.522 569.2l69.268-2.981a14.889 14.889 0 0115.73 15.936l-4.391 90.839a17.5 17.5 0 01-17.147 16.483l-68.535.407a14.846 14.846 0 01-14.884-15.8l3.6-88.072c.367-8.907 7.672-16.438 16.359-16.812z" class="cls-1" data-name="Rounded Rectangle 1 copy 19"/>
  <path fill="#ffffff" id="Rounded_Rectangle_1_copy_17" d="M131.664 346.7l53.844-8.551c7.085-1.126 12.347 4.078 11.717 11.632l-6.294 75.519c-.635 7.612-6.93 14.476-14.024 15.32l-53.913 6.415c-6.758.8-11.69-4.533-11.048-11.914l6.368-73.226c.637-7.326 6.599-14.126 13.35-15.195z" class="cls-1" data-name="Rounded Rectangle 1 copy 17"/>
  <path fill="#ffffff" id="Rounded_Rectangle_1_copy_7" d="M673.6 8.41L719.729.181c5.931-1.058 10.56 2.593 10.339 8.145l-2.176 54.7c-.216 5.434-5.136 10.67-10.988 11.705l-45.512 8.049c-5.839 1.033-10.451-2.512-10.3-7.926l1.517-54.506c.154-5.533 5.076-10.882 10.991-11.938z" class="cls-1" data-name="Rounded Rectangle 1 copy 7"/>
  <path fill="#ffffff" id="Rounded_Rectangle_1_copy_6" d="M691.083 164.98l48.961-8.659c6.3-1.113 11.2 2.672 10.952 8.444l-2.433 56.867c-.241 5.65-5.473 11.1-11.684 12.194l-48.31 8.472c-6.2 1.087-11.082-2.587-10.91-8.217l1.732-56.667c.176-5.751 5.409-11.323 11.692-12.434z" class="cls-1" data-name="Rounded Rectangle 1 copy 6"/>
  <path fill="#ffffff" d="M544.888 406.226l49.147-5.114-9.8 323.731s-13.188 51.587-66.019 51.864c-36.741.192-294.461 2.02-444.674-6.477-95.142-5.381-70.75-98.139-70.75-98.139l16.157 6.077s-4.3 52.816 47.374 52.475c118.741-.783 306.968-4.017 306.968-4.017l115.985-4.313s51.7 9.023 52.554-76.838c.908-91.692 3.058-239.249 3.058-239.249z" class="cls-1"/>
  <path fill="#ffffff" d="M402.3 169.722L65.88 263.688S27.9 278.141 24.914 317.6.9 698.664.9 698.664l16.157 6.076 24.074-365.556s-5.007-38.386 58.18-52.6c67.324-15.144 305.608-76.8 305.608-76.8z" class="cls-1"/>
</svg>
