<svg xmlns="http://www.w3.org/2000/svg" viewBox="0 0 545 232">
  <defs/>
  <rect width="100%" height="100%" fill="none"/>
  <g class="currentLayer">
    <g fill="#fff">
      <path d="M158.69 2.102c2.94-2.11 6.69-1.36 10.07-1.49 29.22.25 58.43-1.11 87.65-.41-10.56 5.91-19.2 14.63-26.53 24.16-14.82 19.93-27.02 41.66-38.26 63.77-17.61 37.96-36.59 75.4-59.29 110.61-5.38 8.14-10.98 16.22-17.96 23.1-3.33 3.55-7.38 6.45-11.9 8.28-5 1.97-10.46 1.3-15.71 1.4-28.92-.12-57.85.22-86.76-.17 10.92-5.57 18.43-15.62 25.91-24.99 14.48-19.27 27.07-39.87 39.45-60.53 14.59-24.24 27.85-49.25 42.5-73.46 11.41-18.72 22.7-37.59 36.03-55.04 4.49-5.46 8.87-11.24 14.8-15.23zM383.79 7.192c3.38-2.67 7.52-4.74 11.95-4.32 31.08.1 62.17-.25 93.24.18-9.11 6.53-17.94 13.59-25.33 22.07-16.1 17.47-29.44 37.28-41.17 57.89-17.41 32.07-34.23 64.49-53.12 95.73-9.66 15.77-19.19 31.76-31.25 45.85-3.29 3.37-7.11 7.57-12.29 6.95-32.17-.12-64.34.12-96.5-.13 3.92-3.29 8.25-6.11 11.91-9.71 11.35-10.89 20.16-24.04 29.03-36.94 6.63-10.42 13.34-20.8 19.44-31.54 21.91-41.31 43.79-82.89 71.22-120.89 7-8.9 13.84-18.16 22.87-25.14z"/>
    </g>
    <g fill="#a1a3a2">
      <path d="M265.13 6.532c1.82-.52 4.21-.85 5.12 1.28 7.19 11.21 9.86 24.51 12.59 37.34 5.06 27.42 7.29 55.27 8.85 83.08.54 4.44-2.14 8.26-3.83 12.14-7.03 15.26-16.3 29.34-25.85 43.12-7.33 10.21-14.57 20.59-23.66 29.35-6.15 6.13-13 12.41-21.62 14.64-2.96 1.12-4.51-2.35-5.85-4.32-5.39-10.22-7.66-21.72-9.53-33.01-3.67-25.79-5.52-51.78-8.17-77.67-.28-2.77-.7-5.71.62-8.29 9.53-21.05 19.96-41.8 32.9-60.99 7.38-11.02 15.48-21.81 25.95-30.09 3.76-2.84 7.84-5.49 12.48-6.58zM466.43 34.862c8.85-9.81 18.39-19.51 30.22-25.67 6.05 10.51 8.5 22.54 10.95 34.28 4.51 23.35 6.84 47.05 9.24 70.69 2.44 23.28 3.52 46.71 7.17 69.85 2.14 11.61 4.61 23.36 9.91 34 2.38 5.43 6.6 9.69 11.13 13.39-30.11.28-60.22 0-90.33.16-3.84.11-7.82-.92-10.65-3.62-6.24-5.62-8.79-13.96-11.33-21.69-5.46-19.88-7.06-40.54-8.81-61-.6-9.24-1.48-18.46-1.88-27.71-.2-4.44-1.12-8.88-.66-13.32 1.69-6.14 5.48-11.39 8.42-16.96 10.77-18.41 22.64-36.25 36.62-52.4z"/>
    </g>
  </g>
</svg>
